<?xml version="1.0" encoding="UTF-8" standalone="no"?>
<!-- Created with Inkscape (http://www.inkscape.org/) -->

<svg width="700" height="787" viewBox="0 0 185.20833 208.22708" version="1.1" id="svg1" xml:space="preserve" sodipodi:docname="logo_.svg" inkscape:version="1.3.1 (9b9bdc1480, 2023-11-25, custom)" xmlns:inkscape="http://www.inkscape.org/namespaces/inkscape" xmlns:sodipodi="http://sodipodi.sourceforge.net/DTD/sodipodi-0.dtd" xmlns="http://www.w3.org/2000/svg" xmlns:svg="http://www.w3.org/2000/svg"><sodipodi:namedview id="namedview1" pagecolor="#ffffff" bordercolor="#000000" borderopacity="0.25" inkscape:showpageshadow="2" inkscape:pageopacity="0.0" inkscape:pagecheckerboard="0" inkscape:deskcolor="#d1d1d1" inkscape:document-units="px" inkscape:zoom="0.64" inkscape:cx="418.75" inkscape:cy="256.25" inkscape:window-width="1878" inkscape:window-height="1043" inkscape:window-x="0" inkscape:window-y="0" inkscape:window-maximized="1" inkscape:current-layer="layer1" /><defs id="defs1" /><g inkscape:label="Layer 1" inkscape:groupmode="layer" id="layer1"><g id="g3" style="fill:#ffffff"><path style="fill:#ffffff;stroke-width:0.264583" d="m 105.94476,25.027542 -19.096057,-3.273379 -5.567787,18.33888 -8.598015,3.888446 -8.994727,3.323439 -10.1306,3.788529 -20.672388,12.183123 -3.661962,5.917758 -2.811109,5.706787 1.128194,6.031225 6.617589,7.408923 6.028084,3.664352 2.651488,1.25095 13.934874,-9.690436 -2.586686,-7.576211 4.770567,-3.436832 5.198208,-1.521007 -0.77478,5.223901 -2.033148,8.314164 0.02998,34.434526 -2.036863,17.03827 0.54383,2.6178 5.582742,0.18841 15.113598,-0.45733 11.077559,-1.38912 6.653842,-1.74139 3.942987,-3.36175 -3.575864,-20.8368 13.667954,11.81408 9.3493,-6.28501 5.02721,-5.90875 8.22738,0.98717 8.78234,-5.25502 0.14616,-4.46196 -4.40144,-13.271721 -0.97633,-7.961318 -1.08138,-4.548182 -8.51571,-14.267452 -6.94502,-6.50711 -12.31995,-10.530242 z" id="path2" sodipodi:nodetypes="ccccccccccccccccccccccccccccccccccccccccc" /><path style="fill:#ffffff;stroke-width:0.264583" d="m 31.761628,180.6713 -5.81683,-2.67829 -8.24562,-6.37962 -5.103048,-5.56087 -5.8273248,10.30864 -3.2184729,8.98847 -1.3879966,6.79142 0.064596,7.36227 1.6076216,4.27704 7.2193597,1.1288 9.55368,-0.0194 8.176987,-0.9318 3.523689,-1.61488 z" id="path3" /></g><path style="fill:#000000;stroke-width:0.172305" d="m 30.935524,208.16796 c -0.86355,-0.28364 -1.48346,-1.1225 -1.93469,-2.61804 -0.0893,-0.29607 -0.1624,-0.5679 -0.1624,-0.60405 0,-0.0865 -0.0566,-0.0828 -0.41031,0.0266 -0.45146,0.13969 -1.82277,0.47924 -2.46182,0.60958 -5.69582,1.1617 -14.47646,1.24933 -20.7138899,0.20671 -1.44458,-0.24147 -2.5373,-0.49277 -3.54488,-0.81527 l -0.57529,-0.18412 -0.14197,-0.49031 c -1.28095,-4.42393 -1.3187,-9.439 -0.11516,-15.29965 1.35517,-6.59906 4.36578,-14.209 8.62284,-21.79601 0.7763199,-1.38358 2.3185899,-3.94406 2.7691799,-4.59739 0.0502,-0.0728 0.099,-0.0269 0.46051,0.4331 0.9104,1.15844 5.23301,6.25784 6.54198,7.71759 1.45687,1.62472 3.205,3.114 5.12387,4.36519 1.46822,0.95737 3.30647,1.88962 4.85523,2.46231 0.61876,0.2288 0.63826,0.23353 0.63826,0.15493 0,-0.21033 0.43508,-4.01058 0.73154,-6.38977 1.9348,-15.52683 5.36816,-33.78258 9.64571,-51.28766 1.57177,-6.43218 3.42897,-13.24393 4.61547,-16.92848 l 0.225,-0.69879 -0.1893,-0.0823 c -0.9701,-0.42172 -2.77,-1.29512 -4.08705,-1.98323 -1.40473,-0.733917 -3.01149,-1.611787 -3.09621,-1.691627 -0.0551,-0.052 -0.0159,-0.14586 0.2699,-0.64429 0.46125,-0.8047 1.07209,-1.78743 1.57308,-2.53073 l 0.42138,-0.62517 -1.37295,-1.1756 c -5.68609,-4.86883 -9.92773,-8.74816 -11.4303,-10.45398 -1.21322,-1.37732 -1.9672,-3.17512 -2.35135,-5.60644 -0.12655,-0.80107 -0.11681,-2.97781 0.0172,-3.83005 0.39232,-2.49605 1.20277,-4.53582 2.6806,-6.7466 2.20954,-3.30535 5.7318,-6.277543 10.4394,-8.809073 0.35105,-0.18877 1.88965,-1.00513 3.41918,-1.81413 4.94852,-2.61743 10.56152,-5.61658 15.24642,-8.14664 1.6861,-0.91051 2.0509,-1.12603 2.4569,-1.4513 2.3972,-1.92048 6.0105,-3.69431 9.9394,-4.87951 1.6365,-0.49365 2.6071,-0.71953 4.976,-1.15804 0.639,-0.11828 1.0628,-0.25715 1.5985,-0.52374 1.5437,-0.76827 2.9338,-2.29389 3.9553,-4.3408 0.4226,-0.84678 0.4797,-1.02735 0.9141,-2.88746 0.9645,-4.13063 2.4032,-9.93586 3.4004,-13.72103 0.618398,-2.34705 0.789998,-3.09763 0.932998,-4.08022 0.3913,-2.68694 0.047,-4.90196 -0.964498,-6.2139204 -0.2895,-0.3753 -0.8109,-0.83713 -1.132,-1.00264 -0.3443,-0.17743 -0.3209,-0.19237 -0.591,0.37821 -0.5483,1.15872 -1.2239,3.5401504 -1.8946,6.6787904 -0.3469,1.62379 -0.418,1.91615 -0.6592,2.71444 -0.6412,2.12127 -1.6019,3.65055 -2.6017,4.14133 -0.3582,0.17584 -0.8399,0.29783 -0.9031,0.22869 -0.078,-0.0852 -0.5626,-6.84734 -0.7545,-10.52643 -0.2512,-4.8154904 -0.2684,-8.3880604 -0.046,-9.6596404 0.17,-0.97401 0.7901,-1.57659999 1.9144,-1.86045999 0.3691,-0.0932 0.5177,-0.10357 1.4816,-0.10334 1.1546,2.6e-4 1.5394,0.0406 2.8721,0.30105 1.2674,0.24768 2.4369,0.54852 4.497898,1.15705999 1.9761,0.58346 2.2336,0.63923 5.5773,1.20756 3.4141,0.58029 4.4496,0.81615 5.6254,1.28129 0.6991,0.27658 0.9418,0.44747 1.7372,1.22325 0.4012,0.39129 1.186398,1.15004 1.744998,1.68612 2.7972,2.6845 4.6864,5.0203004 5.9024,7.2973004 0.6874,1.28739 1.0142,2.23212 1.356,3.92066 0.2649,1.30882 0.6597,2.94386 1.5022,6.22098 1.1351,4.41509 1.3694,5.368 1.9229,7.82044 0.7773,3.44325 1.2651,6.43356 1.4542,8.91265 0.053,0.69214 0.067,2.99571 0.02,3.18431 -0.032,0.12901 0,0.14892 1.0964,0.61127 0.7188,0.30402 1.7717,0.8489 2.4839,1.28545 0.9392,0.57563 1.4261,0.93226 2.8769,2.10683 0.1651,0.13373 0.6062,0.47868 0.9801,0.76654 3.9325,3.02747 7.5842,6.88391 10.5125,11.10182 3.708,5.340933 6.464,11.389633 8.236,18.076053 0.1495,0.56416 0.2971,1.13858 0.328,1.27649 0.08,0.35879 0.1015,0.38454 0.3711,0.4523 0.1336,0.0336 0.257,0.0691 0.2743,0.0789 0.017,0.01 -0.01,0.13536 -0.059,0.27901 -0.2303,0.66745 -0.3805,1.44924 -0.453,2.35811 -0.1844,2.30922 0.6974,5.02426 2.2582,6.95248 0.8726,1.07797 2.1478,3.793 2.8086,5.97963 0.4702,1.55605 0.6746,2.73998 0.7109,4.11834 0.037,1.392267 -0.095,2.365247 -0.4844,3.578737 l -0.1828,0.56986 0.089,0.72943 c 0.3313,2.72148 0.3911,6.12565 0.1586,9.03741 -0.5188,6.49834 -2.1178,12.36541 -4.9072,18.00517 -0.5311,1.07394 -0.5528,1.12988 -0.8403,2.16548 -1.0384,3.7413 -2.0114,6.49358 -3.1881,9.01834 -1.0593,2.27285 -1.5594,3.57583 -1.8035,4.69915 -0.1505,0.69213 -0.1524,1.61747 0,2.09362 0.1619,0.5209 0.3892,0.89088 0.8015,1.30463 0.6269,0.62918 1.4479,1.09822 2.99,1.70822 1.0237,0.40496 2.1064,0.93893 2.6898,1.32664 0.9758,0.64849 1.6043,1.46621 1.614,2.10008 v 0.28481 l -7.6034,0.15429 c -4.1819,0.0849 -7.6109,0.14641 -7.62,0.13677 -0.1113,-0.11777 -0.1575,-5.24315 -0.066,-7.31178 0.1037,-2.34331 0.071,-3.01223 -0.2139,-4.41535 -0.7713,-3.79466 -3.2749,-9.79625 -7.0299,-16.85193 -0.6304,-1.18441 -1.6389,-3.01141 -1.6935,-3.06771 -0.019,-0.0198 -1.2773,0.0973 -2.7957,0.26028 l -2.7608,0.29632 -1.0418,0.81275 c -1.5684,1.22367 -1.8014,1.39496 -1.8332,1.34763 -0.016,-0.0239 -0.2856,-0.41595 -0.599,-0.87127 -0.5565,-0.80841 -0.5736,-0.82784 -0.7294,-0.82702 -0.2468,0.001 -6.2835,0.65832 -6.3121,0.68701 -0.028,0.0279 0.5155,1.59091 0.8778,2.52453 0.3465,0.8931 0.7804,1.91938 1.1659,2.75814 l 0.3458,0.75222 -0.6943,0.67701 c -3.46,3.37413 -7.308798,5.88785 -11.597298,7.57445 -0.4352,0.17117 -0.5584,0.2387 -0.5733,0.31424 -0.1071,0.5432 -15.102798,66.89317 -15.124298,66.91894 -0.016,0.0191 -0.9407,-0.006 -2.0549,-0.056 -2.6442,-0.11849 -6.773,-0.2912 -10.4142,-0.43562 -1.6048,-0.0636 -3.1024,-0.13588 -3.328,-0.16053 -3.1241,-0.34126 -4.155,-1.64017 -3.0482,-3.84047 0.3829,-0.76116 1.2888,-1.93647 1.5437,-2.00289 0.075,-0.0196 2.4543,-0.37519 5.2869,-0.79019 2.8325,-0.41501 5.158,-0.7625 5.1676,-0.77219 0.014,-0.0142 -9.4516,-59.67504 -9.4889,-59.80598 -0.01,-0.021 -0.3077,-0.14678 -0.6706,-0.27951 -1.1246,-0.41143 -2.8269,-1.11161 -3.2855,-1.35138 l -0.2083,-0.1089 1.9289,-11.28328 c 1.0609,-6.20581 1.9292,-11.31406 1.9296,-11.35167 0,-0.051 -0.132,-0.0942 -0.5217,-0.17019 -1.3377,-0.2607 -2.8168,-0.94291 -3.8526,-1.77696 -0.3513,-0.28293 -1.1035,-1.02906 -1.3809,-1.36991 l -0.2322,-0.28538 -0.2714,0.42215 c -1.616,2.51381 -3.4336,5.96433 -4.9412,9.3804 -6.7244,15.23629 -11.37325,37.91818 -13.30087,64.89598 -0.44082,6.16952 -0.79881,14.28004 -0.79952,18.11365 l -1.3e-4,0.88098 -0.26215,0.34949 c -0.57764,0.77011 -1.39481,1.46265 -2.00348,1.69794 -0.28398,0.10977 -0.98391,0.16457 -1.19914,0.0939 z m -14.36055,-4.7925 c 3.16733,-0.1215 6.30359,-0.38559 10.57667,-0.8906 0.73966,-0.0874 1.39242,-0.16967 1.45055,-0.18277 l 0.10567,-0.0238 -0.0309,-2.01567 c -0.0729,-4.74926 0.22048,-11.65895 0.7533,-17.74224 0.0482,-0.55073 0.0836,-1.00397 0.0785,-1.00719 -0.005,-0.003 -0.28617,-0.12445 -0.62471,-0.26938 -0.33848,-0.14494 -1.0056,-0.45209 -1.48246,-0.68256 -5.62006,-2.71615 -10.44268,-6.575 -13.77799,-11.02459 l -0.36782,-0.49069 -0.46625,0.73765 c -0.73933,1.16963 -1.76845,2.90446 -2.46378,4.15321 -0.7683899,1.37997 -2.1060499,4.04494 -2.6504999,5.28046 -2.09951,4.76449 -3.16761,8.90098 -3.45383,13.37585 -0.0593,0.92786 -0.0597,3.34355 -7.9e-4,4.4685 0.0489,0.93197 0.31334,4.52922 0.33847,4.60449 0.0299,0.0896 0.75055,0.48655 1.24011,0.68312 0.50053,0.20098 1.3669,0.46699 1.40227,0.43054 0.0105,-0.0107 -0.0133,-0.38879 -0.0525,-0.84012 -0.0524,-0.60139 -0.072,-1.42343 -0.0735,-3.07726 -0.002,-2.35914 0.0372,-3.15859 0.24778,-5.03759 0.56902,-5.07657 2.01656,-9.78332 4.2272299,-13.74509 0.97409,-1.74562 2.26677,-3.61053 2.80593,-4.04798 0.59434,-0.4822 1.35404,-0.78314 1.80595,-0.71538 0.30009,0.045 0.52085,0.28084 0.59436,0.63498 0.10218,0.49222 -0.009,1.03978 -0.47348,2.33421 -1.93788,5.39935 -4.44635,17.32735 -5.01761,23.85926 -0.0384,0.43879 -0.0797,0.885 -0.0919,0.99156 -0.0154,0.13352 -0.005,0.19537 0.034,0.19895 0.88548,0.082 3.72285,0.10325 5.36723,0.0402 z m 57.03193,-66.21779 c 2.1018,-0.0785 2.8578,-0.12115 4.9008,-0.27635 8.947498,-0.67976 17.321598,-2.14118 20.109498,-3.50946 0.5534,-0.27162 0.9069,-0.54753 1.0063,-0.78555 0.061,-0.14696 0.054,-0.17879 -0.1852,-0.77704 -2.0253,-5.06867 -2.928,-12.11342 -2.5774,-20.11312 0.072,-1.6475 0.267,-4.06977 0.3326,-4.13538 0.07,-0.0698 2.7801,2.02668 4.427798,3.42496 2.7919,2.36935 5.0617,4.47539 8.2972,7.6986 l 2.1883,2.17997 0.4559,-0.2256 c 0.4088,-0.20229 0.8964,-0.57491 4.7185,-3.60588 3.3794,-2.67993 4.3315,-3.4578 4.5954,-3.75442 0.9924,-1.11527 2.1886,-2.67722 3.1718,-4.14134 l 0.6316,-0.94069 -0.115,-0.29022 c -0.5872,-1.48258 -0.6672,-3.23411 -0.2326,-5.09589 0.1767,-0.7572 0.3182,-1.18413 0.7943,-2.3974 0.2459,-0.626847 0.454,-1.179437 0.4623,-1.227987 0.014,-0.0803 -0.5163,-0.23598 -5.8357,-1.71459 l -5.8509,-1.62632 -0.486,0.38915 c -5.6489,4.522877 -13.3739,7.758567 -23.196598,9.716157 -5.6605,1.12807 -12.055898,1.80844 -18.374198,1.95471 -0.8074,0.0187 -1.479,0.045 -1.4925,0.0585 -0.014,0.0135 -0.045,0.31667 -0.071,0.67373 -0.139,1.94458 -0.8677,3.41643 -2.2432,4.53034 -1.3907,1.12619 -3.2794,2.05019 -5.0797,2.485 l -0.507,0.12246 -0.031,0.77618 c -0.2911,7.29827 -0.8139,13.20979 -1.5524,17.55294 -0.1108,0.65192 -0.2536,1.43083 -0.3171,1.7309 -0.064,0.30007 -0.1006,0.55879 -0.082,0.57494 0.055,0.0488 0.768,0.21139 1.4694,0.33538 2.4069,0.42541 6.3029,0.57635 10.6679,0.41329 z M 134.5756,109.61763 c 3.0194,-0.38324 5.5499,-1.82285 7.5143,-4.27493 0.4239,-0.52915 0.6413,-0.90461 0.8301,-1.4336 0.1379,-0.38625 0.1493,-0.56445 0.043,-0.67067 -0.2077,-0.20771 -0.7799,0.111 -2.4911,1.38757 -1.1476,0.85616 -1.7115,1.2383 -2.4546,1.66358 -1.8104,1.03604 -3.8349,1.56174 -5.6463,1.46618 -0.6971,-0.0368 -0.9547,-0.0734 -2.1345,-0.30359 -1.4334,-0.27967 -2.2645,-0.30808 -2.6883,-0.0919 -0.572,0.29181 -0.1085,1.00435 1.0211,1.56976 0.675,0.33784 2.0435,0.63471 3.5054,0.76042 0.5938,0.0511 1.8018,0.0159 2.5008,-0.0728 z m -56.500996,-4.62101 c 9.029098,-0.5226 17.353198,-2.46356 25.996896,-6.061747 1.7735,-0.73829 3.2027,-1.40443 5.8242,-2.71478 2.9215,-1.46024 3.6596,-1.90523 4.4425,-2.67836 l 0.4534,-0.44776 -0.2323,-0.23842 c -0.2647,-0.27148 -0.5041,-0.63295 -0.6762,-1.02064 -0.1552,-0.34953 -0.4422,-1.36841 -0.5629,-1.9987 -0.053,-0.27582 -0.1167,-0.5938 -0.1419,-0.70663 -0.081,-0.36089 -0.222,-1.59331 -0.2773,-2.41622 -0.068,-1.01293 -0.029,-3.56497 0.071,-4.65008 0.2287,-2.48292 0.6323,-4.80668 1.2788,-7.36263 0.407,-1.6091 0.7526,-2.73455 0.952,-3.10006 0.3176,-0.58244 0.605,-0.39369 0.8416,0.55286 0.085,0.33843 0.093,0.63492 0.1411,5.19136 0.055,5.14684 0.048,4.99048 0.333,7.86306 l 0.056,0.5688 1.9522,1.76903 1.9523,1.76902 0.4233,-0.61254 c 1.6593,-2.40033 3.7921,-4.65141 5.8386,-6.16211 3.1021,-2.29008 6.5132,-3.39307 9.8138,-3.17341 0.44,0.0293 0.8046,0.0479 0.8102,0.0414 0.033,-0.0387 -1.6077,-3.50021 -2.1775,-4.59349 -1.2265,-2.35336 -4.4737,-7.25131 -6.7097,-10.12076 -1.3234,-1.69841 -3.2532,-3.906473 -3.3738,-3.860213 -0.027,0.0105 -0.6813,0.47308 -1.453,1.0279 -0.7717,0.55481 -1.4219,1.008753 -1.445,1.008753 -0.023,0 -1.2765,-1.312973 -2.7853,-2.917703 -1.5088,-1.60474 -2.7578,-2.9177 -2.7756,-2.9177 -0.041,0 -3.2579,2.41042 -3.2731,2.45289 -0.01,0.0175 0.8417,1.08833 1.8845,2.37961 1.0428,1.291273 1.9072,2.374973 1.921,2.408213 0.014,0.0345 -0.049,0.12248 -0.1486,0.20515 -0.5922,0.49376 -1.1725,0.9296 -2.5286,1.89897 -0.8399,0.60045 -1.8595,1.35023 -2.2658,1.66618 -0.4061,0.31596 -0.7506,0.57375 -0.7652,0.57288 -0.015,-7.9e-4 -1.2076,-1.46021 -2.6508,-3.24297 -1.6421,-2.02839 -2.6464,-3.232813 -2.6837,-3.218483 -0.033,0.0126 -0.7664,0.32529 -1.63,0.694873 l -1.5703,0.67198 0.2943,0.61902 c 1.3066,2.74754 1.8589,4.7163 1.5834,5.64405 -0.081,0.27127 -0.2974,0.48717 -0.5574,0.55493 -0.5819,0.15168 -3.9143,0.24882 -7.066898,0.206 -1.2851,-0.0175 -2.3365,-0.0467 -2.3365,-0.065 0,-0.0687 0.2343,-2.29425 0.343,-3.2591 0.1374,-1.21802 0.3568,-2.8914 0.4835,-3.68749 0.072,-0.4529 0.081,-0.59526 0.038,-0.62159 -0.03,-0.0188 -0.181,-0.0478 -0.3347,-0.0645 -1.1962,-0.12986 -3.9236,-0.853663 -6.604,-1.752603 l -1.082,-0.36286 -0.05,0.19005 c -0.5259,2.013243 -1.1555,3.893253 -1.6204,4.838583 -0.2355,0.47874 -0.5721,0.89056 -0.728,0.8905 -0.1152,-5e-5 -1.0253,-0.44583 -2.276398,-1.11501 -1.5709,-0.84018 -5.8582,-3.226263 -5.8582,-3.260323 0,-0.0258 1.828,-2.25966 3.8102,-4.65609 l 0.513,-0.62028 -2.0231,-1.39974 -2.0232,-1.39973 -2.619,1.84906 c -1.4404,1.01697 -2.6362,1.84897 -2.6572,1.84886 -0.039,-1.7e-4 -3.6739,-4.07363 -3.6986,-4.14417 -0.01,-0.0207 1.1683,-1.07998 2.6123,-2.35388 2.5161,-2.21982 2.6219,-2.31953 2.5433,-2.39634 -0.045,-0.0441 -0.7053,-0.60409 -1.467,-1.24448 -1.3633,-1.14608 -1.3865,-1.16311 -1.4839,-1.0859 -0.054,0.0431 -0.9867,0.86827 -2.072,1.83362 -1.0852,0.96535 -1.9971,1.75988 -2.0265,1.76563 -0.029,0.006 -0.5642,-0.4379 -1.1886,-0.98587 l -1.1352,-0.99632 -0.2552,0.11294 c -0.6114,0.27052 -9.8992,4.92321 -11.4702,5.74592 -6.2915,3.29478 -10.2969,5.60772 -12.55975,7.25274 -0.99634,0.72432 -3.63527,2.926953 -5.05992,4.223383 -4.04526,3.68113 -6.248,6.97349 -6.61225,9.88301 -0.086,0.6873 -0.0351,1.85149 0.10721,2.44908 0.29178,1.22554 0.85143,2.29518 1.78895,3.41918 1.36041,1.63101 3.59394,3.84063 5.74138,5.6799 1.753,1.50144 3.48181,2.8623 5.40872,4.25756 l 0.88256,0.63904 0.084,-0.10249 c 0.395,-0.48118 1.3428,-1.52693 1.9537,-2.15577 2.2978,-2.36522 4.5248,-4.06587 6.9887,-5.33686 1.2404,-0.63981 2.3719,-1.09502 3.455,-1.38987 0.2812,-0.0765 0.5354,-0.14676 0.565,-0.15602 0.033,-0.0102 -0.063,-0.21095 -0.2426,-0.50961 -1.1135,-1.85222 -1.7251,-3.47826 -1.8343,-4.87668 -0.043,-0.54749 0.01,-1.27978 0.1154,-1.67857 0.1049,-0.38815 0.389,-0.98583 0.6276,-1.32017 0.4253,-0.59605 1.2069,-1.19496 1.9022,-1.45755 0.1594,-0.0602 0.6839,-0.30405 1.1656,-0.54191 2.2651,-1.11846 4.5868,-1.91015 5.9169,-2.01764 0.3016,-0.0244 0.3981,-0.0527 0.5573,-0.16364 0.472,-0.32883 1.0524,-0.49184 1.7973,-0.50474 0.2457,-0.004 0.4592,0.005 0.4744,0.0199 0.073,0.0733 -1.0915,4.37082 -1.6949,6.25308 -0.3628,1.13165 -0.5524,2.06343 -0.7433,3.65244 -0.09,0.74487 -0.2759,2.79108 -0.2765,3.03608 0,0.11181 0.026,0.12532 0.4705,0.24317 0.2589,0.0686 0.4933,0.13872 0.5209,0.15574 0.028,0.017 0.1659,0.77949 0.3075,1.69436 0.3239,2.092 0.7468,4.62939 1.398,8.3878 l 0.5094,2.9405 0.3741,0.52427 c 1.8126,2.54038 3.2508,5.271847 4.0087,7.613367 0.1176,0.36357 0.228,0.67576 0.2451,0.69376 0.1075,0.11275 5.4322,0.14061 7.2099,0.0377 z m -17.3289,-23.286657 c 0.109,-1.34338 0.4247,-3.28545 0.8762,-5.3909 0.2068,-0.96451 0.9883,-4.14452 1.0671,-4.34236 0.018,-0.0439 0.019,-0.0798 0,-0.0798 -0.09,0 -2.1723,1.11056 -3.3498,1.78679 -1.6601,0.95332 -3.4697,2.07341 -3.4701,2.14784 -2e-4,0.0299 0.5999,1.50536 1.3334,3.27873 l 1.3338,3.22432 0.661,0.006 c 0.5405,0.005 1.3485,0.0492 1.4614,0.0807 0.014,0.004 0.052,-0.31605 0.084,-0.71097 z M 103.6162,31.62053 c 0.8037,-0.17033 1.5331,-0.81126 1.8196,-1.59891 0.1376,-0.37833 0.1677,-1.0948 0.061,-1.46256 -0.2678,-0.92732 -1.0033,-1.6252 -1.9156,-1.81757 -0.1755,-0.037 -0.4011,-0.0673 -0.5014,-0.0673 -0.619,0 -1.2675,0.27875 -1.7375,0.74685 -0.5502,0.54804 -0.7757,1.1292 -0.7356,1.8957 0.049,0.92915 0.5548,1.69942 1.3789,2.09826 0.5561,0.26912 1.0414,0.3303 1.6302,0.20553 z M 92.173902,30.8454 c 1.0675,-0.2262 1.9024,-1.25049 1.9024,-2.33378 0,-1.09662 -0.7156,-2.04784 -1.7748,-2.35894 -0.1425,-0.0419 -0.4148,-0.0727 -0.6414,-0.0727 -1.8075,0 -2.9511,1.85922 -2.1537,3.5015 0.1819,0.37471 0.629,0.82914 1.0156,1.03227 0.5339,0.28058 1.0678,0.35546 1.6519,0.23168 z M 108.2089,198.68002 v -7.61337 h 1.2762 1.2761 l 0.012,2.83639 0.012,2.83638 2.7116,-2.83638 2.7115,-2.83639 h 1.836 c 1.0097,0 1.8359,0.0104 1.8359,0.023 0,0.021 -4.0016,4.25147 -4.6856,4.95355 l -0.2958,0.30364 3.1437,4.91631 c 1.729,2.70397 3.1588,4.94195 3.1772,4.97329 0.027,0.0452 -0.3007,0.0568 -1.5761,0.0561 l -1.6097,-8.7e-4 -2.5302,-3.96279 c -1.3916,-2.17953 -2.5428,-3.95883 -2.5581,-3.954 -0.015,0.005 -0.5128,0.52092 -1.1055,1.14688 l -1.0777,1.1381 v 2.81675 2.81675 h -1.2765 -1.2765 z m 16.8986,7.03211 c 0.1108,-0.31969 1.294,-3.74058 2.6293,-7.60197 l 2.4279,-7.02071 h 1.1778 1.1778 l 2.6365,7.59057 c 1.45,4.17482 2.6371,7.596 2.6379,7.60263 0,0.007 -0.6263,0.007 -1.3936,0 l -1.3951,-0.0121 -0.6923,-2.02871 -0.6922,-2.02871 -2.2614,-0.0118 c -2.1222,-0.0111 -2.2632,-0.007 -2.2926,0.0684 -0.017,0.0441 -0.309,0.88029 -0.6483,1.85818 -0.3393,0.97788 -0.6474,1.86516 -0.6846,1.97172 l -0.068,0.19376 h -1.3804 -1.3804 z m 7.4916,-6.36664 c 0,-0.015 -0.9163,-2.70045 -1.1753,-3.44475 l -0.071,-0.2035 -0.079,0.22629 c -0.044,0.12447 -0.3266,0.94946 -0.6289,1.83331 l -0.5498,1.60702 h 1.252 c 0.6886,0 1.252,-0.008 1.252,-0.0184 z m 12.5369,0.74779 v -6.20011 h -1.6867 -1.6868 v -1.41326 -1.41326 h 4.65 4.6501 v 1.41326 1.41326 h -1.6868 -1.6868 v 6.20011 6.20011 h -1.2765 -1.2765 z m 10.1059,5.61885 c 0.1107,-0.31969 1.2939,-3.74058 2.6293,-7.60197 l 2.4279,-7.02071 h 1.1778 1.1778 l 2.6364,7.59057 c 1.45,4.17482 2.6371,7.596 2.6379,7.60263 0,0.007 -0.6262,0.007 -1.3935,0 l -1.3951,-0.0121 -0.6923,-2.02871 -0.6923,-2.02871 -2.2613,-0.0118 c -2.1223,-0.0111 -2.2633,-0.007 -2.2927,0.0684 -0.017,0.0441 -0.3089,0.88029 -0.6482,1.85818 -0.3394,0.97788 -0.6475,1.86516 -0.6847,1.97172 l -0.068,0.19376 h -1.3804 -1.3803 z m 7.4915,-6.36664 c 0,-0.015 -0.9162,-2.70045 -1.1753,-3.44475 l -0.071,-0.2035 -0.079,0.22629 c -0.043,0.12447 -0.3265,0.94946 -0.6289,1.83331 l -0.5497,1.60702 h 1.2519 c 0.6886,0 1.252,-0.008 1.252,-0.0184 z m 1.8008,-18.78784 c -3.5672,-0.57648 -5.9074,-4.40856 -5.1027,-8.35553 0.4062,-1.99235 1.7416,-3.7852 3.4618,-4.6476 0.8717,-0.43698 1.4886,-0.5796 2.5071,-0.5796 1.0656,0 1.6593,0.1454 2.6214,0.64198 0.8708,0.44946 1.5633,1.05912 2.2011,1.93764 0.1935,0.26653 0.3518,0.49461 0.3518,0.50684 0,0.0277 -1.7172,1.44758 -1.7508,1.44758 -0.014,0 -0.1248,-0.14874 -0.2476,-0.33052 -0.7724,-1.14348 -1.8755,-1.76775 -3.1303,-1.77154 -1.8315,-0.006 -3.3437,1.28247 -3.8581,3.28597 -0.3029,1.17973 -0.04,2.68627 0.6486,3.71051 0.2403,0.35774 0.767,0.89964 1.0896,1.12108 0.6859,0.47089 1.2754,0.65854 2.0743,0.66033 1.2588,0.003 2.2708,-0.53968 3.1052,-1.66466 0.1659,-0.22367 0.3112,-0.40668 0.3228,-0.40668 0.027,0 1.6903,1.35951 1.7181,1.40444 0.012,0.0186 -0.1441,0.25905 -0.3458,0.53423 -0.9659,1.31768 -2.2132,2.15641 -3.6606,2.46161 -0.5014,0.10572 -1.4896,0.12736 -2.0059,0.0439 z m -66.856298,-6.67806 v -6.51923 h 2.2721 c 2.097298,0 2.298698,0.007 2.616998,0.0882 0.8768,0.22425 1.5923,0.84091 2.0133,1.73537 0.7927,1.68389 0.1469,3.76967 -1.4089,4.55025 -0.5552,0.27855 -0.6628,0.29523 -2.0402,0.31664 l -1.265098,0.0197 v 3.16417 3.16418 h -1.0941 -1.0941 z m 4.539398,-2.32664 c 0.6321,-0.30598 0.6467,-1.3272 0.024,-1.67715 -0.1678,-0.0943 -0.2314,-0.0992 -1.2759,-0.0992 h -1.099298 v 0.93457 0.93458 h 1.079698 c 0.9928,0 1.0952,-0.007 1.2714,-0.0928 z m 7.4049,2.32664 v -6.51923 h 1.0941 1.0942 v 6.51923 6.51923 h -1.0942 -1.0941 z m 9.8968,6.34827 c -0.025,-0.094 -0.7537,-2.99057 -1.6198,-6.43676 -0.8662,-3.44619 -1.5866,-6.30291 -1.601,-6.34827 -0.025,-0.0781 0.035,-0.0825 1.1364,-0.0825 1.0677,0 1.1644,0.006 1.1862,0.0798 0.013,0.0439 0.5271,2.11077 1.1425,4.59309 0.6153,2.48233 1.1343,4.54958 1.1533,4.5939 0.025,0.0592 0.372,-0.57597 1.3063,-2.39342 0.6996,-1.36071 1.2922,-2.50004 1.317,-2.53185 0.035,-0.0443 0.2796,-0.055 1.0461,-0.0456 l 1.0009,0.0122 1.2836,2.514 c 0.706,1.38269 1.2936,2.5045 1.3057,2.49289 0.012,-0.0116 0.5459,-2.10712 1.1861,-4.65669 l 1.164,-4.63557 1.1555,-0.0122 1.1555,-0.0122 -0.027,0.10337 c -0.015,0.0569 -0.7523,2.98574 -1.6383,6.50863 l -1.6108,6.40526 -1.0224,0.0116 -1.0225,0.0116 -1.4526,-2.83811 c -0.799,-1.56095 -1.4682,-2.8549 -1.4871,-2.87543 -0.019,-0.0205 -0.6962,1.25654 -1.5051,2.83792 l -1.4706,2.87525 h -1.0182 -1.0182 z m 17.7757,-6.34827 v -6.51923 h 1.0637 1.0636 l 2.5447,4.18279 c 1.3995,2.30054 2.5724,4.21283 2.6063,4.24955 0.052,0.0561 0.062,-0.61039 0.062,-4.18279 v -4.24955 h 1.0941 1.0941 v 6.51923 6.51923 h -1.0667 -1.0668 l -2.5918,-4.2502 -2.5917,-4.25019 -0.012,4.25019 -0.012,4.2502 h -1.0939 -1.0939 z m 15.1356,0 v -6.51923 h 1.0941 1.0942 v 6.51923 6.51923 h -1.0942 -1.0941 z m 21.903,6.07549 c 0.1605,-0.47118 4.2215,-12.19292 4.3125,-12.44742 l 0.053,-0.14902 1.0045,0.0122 1.0045,0.0122 2.25,6.47364 c 1.2375,3.5605 2.2502,6.48903 2.2504,6.50783 1e-4,0.0188 -0.5308,0.0342 -1.1799,0.0342 h -1.1802 l -0.272,-0.78641 c -0.1496,-0.43253 -0.4215,-1.22258 -0.6042,-1.75567 l -0.3322,-0.96925 -1.9397,0.0119 -1.9398,0.0119 -0.6014,1.73239 -0.6015,1.73238 -1.1879,0.0121 -1.1879,0.0122 z m 5.9538,-6.93029 c -0.599,-1.75032 -0.5778,-1.69487 -0.6121,-1.60701 -0.065,0.1675 -1.031,3.00311 -1.031,3.02736 0,0.0149 0.4811,0.0271 1.0692,0.0271 h 1.0693 z" id="path1" /></g></svg>
